<svg id="404-Page%201" viewBox="0 0 100 100" style="background-color:#ffffff00" version="1.1"
	xmlns="http://www.w3.org/2000/svg" xmlns:xlink="http://www.w3.org/1999/xlink" xml:space="preserve"
	x="0px" y="0px" width="100px" height="100px"
>
	<g id="Layer%201">
		<g>
			<path d="M 45 0 L 55 0 L 55 50 L 49.875 50 L 45 50 L 45 0 Z" fill="#646473"/>
			<path d="M 28.7328 14.2586 L 28 25.25 L 11.4286 25.25 L 11.4286 65.75 L 32.5 88.5 L 66.5 88.75 L 89.25 66.25 L 89.75 25.25 L 71 25.25 L 71.1207 14.2586 L 100 14.2586 L 99.569 71.2928 L 71.1207 100 L 28.4483 100 L 0 71.2928 L 0.1897 14.2586 L 28.7328 14.2586 Z" fill="#646473"/>
		</g>
		<path id="Ellipse" d="M 20 42 C 20 37.5817 23.5817 34 28 34 C 32.4183 34 36 37.5817 36 42 C 36 46.4183 32.4183 50 28 50 C 23.5817 50 20 46.4183 20 42 Z" fill="#646473"/>
		<path id="Ellipse2" d="M 63 42 C 63 37.5817 66.5817 34 71 34 C 75.4183 34 79 37.5817 79 42 C 79 46.4183 75.4183 50 71 50 C 66.5817 50 63 46.4183 63 42 Z" fill="#646473"/>
		<rect x="20" y="58" width="59" height="8" fill="#646473"/>
	</g>
</svg>