<svg id="Untitled-Page%201" viewBox="0 0 551 551" style="background-color:#ffffff00" version="1.1"
	xmlns="http://www.w3.org/2000/svg" xmlns:xlink="http://www.w3.org/1999/xlink" xml:space="preserve"
	x="0px" y="0px" width="30px" height="50px"
>
	<g id="Layer%201">
		<g id="close22">
			<path d="M 149.0101 369.1556 L 182.8495 402.9942 C 190.8575 411.002 203.8392 411.002 211.8526 402.9942 L 275.5017 339.3459 L 339.1516 402.9942 C 347.1596 411.002 360.1413 411.002 368.1547 402.9942 L 401.9933 369.1556 C 410.0022 361.1478 410.0022 348.1601 401.9933 340.1533 L 338.3442 276.4995 L 401.9933 212.8521 C 410.0022 204.8444 410.0022 191.8567 401.9933 183.8499 L 368.1547 150.0113 C 360.1467 142.0035 347.1642 142.0035 339.1516 150.0113 L 275.5017 213.6541 L 211.8526 150.0058 C 203.8446 141.9981 190.863 141.9981 182.8495 150.0058 L 149.0101 183.8444 C 141.0021 191.8522 141.0021 204.8399 149.0101 212.8467 L 212.6591 276.5004 L 149.0101 340.1487 C 140.9966 348.1601 140.9966 361.1424 149.0101 369.1556 L 149.0101 369.1556 Z"/>
			<path d="M 487 489.057 L 62 489.057 L 62 62 L 489 62.1212 L 487 489.057 ZM 0 0 L 0 550 C 59.0909 550 518.1818 550 551.057 550 L 551.057 0 C 509.0909 0 65.1515 0 0 0 Z" />
		</g>
	</g>
</svg>