<svg
   xmlns:dc="http://purl.org/dc/elements/1.1/"
   xmlns:cc="http://creativecommons.org/ns#"
   xmlns:rdf="http://www.w3.org/1999/02/22-rdf-syntax-ns#"
   xmlns:svg="http://www.w3.org/2000/svg"
   xmlns="http://www.w3.org/2000/svg"
   xmlns:sodipodi="http://sodipodi.sourceforge.net/DTD/sodipodi-0.dtd"
   xmlns:inkscape="http://www.inkscape.org/namespaces/inkscape"
   version="1.0"
   width="471.000000pt"
   height="369.000000pt"
   viewBox="0 0 471.000000 369.000000"
   preserveAspectRatio="xMidYMid meet"
   id="svg3352"
   inkscape:version="0.91 r13725"
   sodipodi:docname="cart inkskape.svg">
  <defs
     id="defs3366" />
  <sodipodi:namedview
     pagecolor="#ffffff"
     bordercolor="#666666"
     borderopacity="1"
     objecttolerance="10"
     gridtolerance="10"
     guidetolerance="10"
     inkscape:pageopacity="0"
     inkscape:pageshadow="2"
     inkscape:window-width="640"
     inkscape:window-height="480"
     id="namedview3364"
     showgrid="false"
     inkscape:zoom="0.51165312"
     inkscape:cx="294.375"
     inkscape:cy="230.625"
     inkscape:window-x="273"
     inkscape:window-y="72"
     inkscape:window-maximized="0"
     inkscape:current-layer="svg3352" />
  <metadata
     id="metadata3354">
Created by potrace 1.12, written by Peter Selinger 2001-2015
<rdf:RDF>
  <cc:Work
     rdf:about="">
    <dc:format>image/svg+xml</dc:format>
    <dc:type
       rdf:resource="http://purl.org/dc/dcmitype/StillImage" />
    <dc:title></dc:title>
  </cc:Work>
</rdf:RDF>
</metadata>
  <g
     transform="translate(0.000000,369.000000) scale(0.100000,-0.100000)"

     stroke="none"
     id="g3356">
    <path
       d="M4007 3681 c-35 -8 -82 -84 -213 -346 -52 -104 -107 -202 -120 -217 l-26 -28 -1761 0 c-1658 0 -1764 -1 -1797 -18 -45 -22 -80 -75 -80 -120 0 -53 162 -355 550 -1027 92 -159 179 -313 194 -342 31 -63 79 -119 117 -139 24 -12 187 -14 1128 -14 l1099 0 42 -47 c53 -61 113 -144 184 -257 49 -78 56 -95 56 -141 0 -40 -5 -56 -21 -71 -21 -18 -65 -19 -1575 -24 l-1553 -5 -22 -22 c-31 -31 -28 -71 10 -105 l31 -28 1559 0 1558 0 59 31 c103 53 114 66 124 146 12 94 -2 184 -36 237 -15 22 -59 86 -99 141 -96 134 -125 186 -125 222 0 48 249 771 468 1360 93 249 233 544 292 616 l31 37 275 0 c176 0 283 4 295 11 11 5 28 24 39 41 14 24 16 36 8 59 -19 56 -37 59 -365 58 -164 -1 -311 -4 -326 -8z m-443 -767 c30 -12 16 -69 -75 -314 -50 -135 -131 -357 -179 -495 -122 -348 -158 -434 -203 -482 l-20 -23 -1029 0 c-875 0 -1033 2 -1057 14 -41 21 -93 84 -136 162 -21 38 -133 238 -248 444 -333 594 -374 678 -334 693 18 8 3262 8 3281 1z"
       id="path3358" />
    <path
       d="M682 660 c-115 -17 -223 -94 -273 -195 -107 -219 60 -457 321 -457 255 0 436 241 336 446 -46 93 -164 185 -262 201 -21 4 -46 8 -54 10 -8 1 -39 -1 -68 -5z m139 -183 c55 -37 79 -81 79 -147 0 -101 -68 -170 -169 -170 -103 0 -161 64 -161 177 0 104 58 163 161 163 42 0 65 -6 90 -23z"
       id="path3360" />
    <path
       d="M2958 659 c-115 -18 -219 -93 -269 -194 -76 -154 -16 -331 140 -413 235 -126 532 28 533 276 1 107 -46 195 -140 262 -82 59 -174 83 -264 69z m120 -173 c31 -16 74 -61 91 -93 6 -12 11 -40 11 -63 0 -47 -11 -73 -49 -113 -37 -41 -73 -57 -126 -57 -94 0 -157 63 -163 164 -3 51 0 66 20 96 50 74 145 103 216 66z"
       id="path3362" />
  </g>
</svg>
